<svg xmlns="http://www.w3.org/2000/svg" width="195" height="44" viewBox="0 0 195 44">
    <g fill="none" fill-rule="evenodd">
        <path stroke="#979797" d="M-317.5-245.5h1168v649h-1168z"/>
        <path fill="#FFF" d="M72.778 30.358a86.481 86.481 0 0 1-6.725-5.384 62.166 62.166 0 0 0-2.126 5.32c3.425 2.908 8.004 6.236 11.15 8.11C79.155 27.85 85.51 20.966 91.6 16.162a15.798 15.798 0 0 0-3.122-4.428 56.893 56.893 0 0 0-15.7 18.623"/>
        <path fill="#000" d="M192.295 39.557a1.69 1.69 0 1 1 1.688-1.69c0 .925-.756 1.69-1.688 1.69zm0-3.689c-1.107 0-2.003.89-2.003 1.999 0 1.11.896 1.981 2.003 1.981a1.983 1.983 0 0 0 2.005-1.981 1.999 1.999 0 0 0-2.005-1.999zm-.377 1.85v-.643h.368c.212 0 .45.062.45.307 0 .274-.264.336-.494.336h-.324zm1.221-.326c0-.485-.413-.66-.834-.66h-.791v2.253h.404v-.942h.29l.527.942h.492L192.62 38c.316-.07.518-.282.518-.608zM143.976 17.491h-4.744v4.881h-2.944v3.855h2.944v7.685c0 2.693.655 6.315 5.83 6.315 1.01 0 2.286-.204 3.046-.495l-.117-3.774c-.482.161-1.223.36-2.11.36-1.406 0-1.905-.988-1.905-2.44v-7.65h4.207v-3.856h-4.207v-4.88zm36.957 13.085l6.262-8.204h-5.608l-3.591 5.01-3.491-5.01h-5.824l6.3 8.205-7.069 9.258h5.749l4.26-5.928 4.228 5.928h5.89l-7.106-9.26zm-55.57 5.63c-3.14 0-4.57-2.68-4.57-5.173 0-2.457 1.43-5.104 4.57-5.104 3.139 0 4.57 2.647 4.57 5.104 0 2.493-1.431 5.174-4.57 5.174zm0-14.326c-5.479 0-9.453 3.85-9.453 9.153 0 5.488 4.063 9.34 9.453 9.34 5.388 0 9.454-3.888 9.454-9.34 0-5.303-3.977-9.153-9.454-9.153zm36.743 10.558c0 2.59-1.462 4.213-4.114 4.213-.986 0-2.749-.299-2.749-1.868 0-1.684 2.108-2.723 6.22-2.723h.643v.378zm-3.203-10.558c-2.769 0-5.585 1.12-7.468 2.867l2.468 2.77c1.136-1.138 3.084-1.857 4.65-1.857 1.717 0 3.467.86 3.467 2.916v.306c-5.057.025-11.483.636-11.483 5.837 0 3.825 3.321 5.536 6.614 5.536 2.058 0 3.833-1.172 4.917-2.443h.108v2.023h4.533V29.277c0-2.762-1.014-7.397-7.806-7.397zM86.07 25.066h-.072v-2.694H81.36v17.463h4.814v-9.33c0-.042.214-4.264 4.384-4.264.346 0 .942.05 1.496.19v-4.407c-.338-.084-1.089-.144-1.38-.144-1.894 0-3.512 1.555-4.604 3.186zm-32.854-7.575h-4.744v4.881H45.53v3.855h2.943v7.685c0 2.693.656 6.315 5.83 6.315 1.01 0 2.287-.204 3.047-.495l-.117-3.774c-.482.161-1.223.36-2.111.36-1.406 0-1.905-.988-1.905-2.44v-7.65h4.208v-3.856h-4.208v-4.88zm19.241 14.455c0 2.052-1.335 4.26-3.825 4.26-1.919 0-2.942-1.37-2.942-4.19v-9.643h-4.814V33.21c0 3.606 1.795 7.116 6.6 7.116 2.265 0 4.164-1.786 5.12-3.105h.072v2.614h4.603V22.372h-4.814v9.574zm31.651 4.26c-2.905 0-4.64-2.594-4.64-5.102 0-2.49 1.773-5.175 4.64-5.175 3.115 0 4.665 2.647 4.665 5.104 0 2.57-1.688 5.174-4.665 5.174zm.946-14.326c-2.202 0-3.824.964-5.356 2.402h-.09V12.749h-4.813v27.086h4.604v-2.469h.071c1.086 1.783 3.242 2.96 5.479 2.96 4.97 0 8.736-3.908 8.736-9.293 0-5.303-3.722-9.153-8.631-9.153z"/>
        <path fill="#D42D27" d="M0 22.91C0 11.69 9.08 2.597 20.28 2.597c11.2 0 20.28 9.094 20.28 20.313s-9.08 20.312-20.28 20.312C9.08 43.222 0 34.13 0 22.91"/>
        <path fill="#FFF" d="M15.753 30.358a86.367 86.367 0 0 1-6.714-5.384 62.224 62.224 0 0 0-2.123 5.32c3.42 2.908 7.992 6.236 11.132 8.11 4.071-10.554 10.417-17.437 16.497-22.241a15.798 15.798 0 0 0-3.117-4.428 56.87 56.87 0 0 0-15.675 18.623"/>
        <path fill="#000" d="M62.233 5.81h2.487v6.923h2.217V5.81h2.486V3.842h-7.19v1.969zm14.685 2.924c0 1.185-.665 2.407-2.069 2.407-1.423 0-1.664-1.314-1.664-2.37V3.849h-2.217v5.554c0 1.814.96 3.59 3.271 3.59 1.312 0 2.365-.795 2.754-1.684h.037v1.425h2.106V3.848h-2.218v4.886zm4.488 3.999h2.218V3.848h-2.218v8.885zM65.829 2.684a1.342 1.342 0 0 0 0-2.684 1.34 1.34 0 0 0-1.34 1.342c0 .74.6 1.342 1.34 1.342zm22.943 0a1.34 1.34 0 0 0 1.34-1.342 1.34 1.34 0 1 0-1.34 1.342zm-3.594 1.158v1.969h2.487v6.922h2.216V5.81h2.487V3.842h-7.19zm-36.732 8.89h2.218V3.849h-2.218v8.885zm9.387-9.143c-1.312 0-2.365.795-2.754 1.684h-.037V3.848h-2.106v8.885h2.217V7.845c0-1.184.666-2.406 2.07-2.406 1.422 0 1.663 1.316 1.663 2.37v4.924h2.218V7.18c0-1.814-.961-3.59-3.271-3.59z"/>
    </g>
</svg>
